<?xml version="1.0" standalone="no"?>
<!DOCTYPE svg PUBLIC "-//W3C//DTD SVG 20010904//EN"
 "http://www.w3.org/TR/2001/REC-SVG-20010904/DTD/svg10.dtd">
<svg version="1.0" xmlns="http://www.w3.org/2000/svg"
 width="27.000000pt" height="36.000000pt" viewBox="0 0 27.000000 36.000000"
 preserveAspectRatio="xMidYMid meet">
<metadata>
Created by potrace 1.16, written by Peter Selinger 2001-2019
</metadata>
<g transform="translate(0.000000,36.000000) scale(0.100000,-0.100000)"
fill="#000000" stroke="none">
<path d="M91 338 c-5 -14 -22 -26 -47 -33 -34 -9 -39 -15 -42 -43 -2 -24 1
-32 12 -32 13 0 16 -16 16 -96 0 -134 0 -134 115 -134 115 0 115 0 115 134 0
79 -3 96 -15 96 -12 0 -15 -17 -15 -93 0 -59 -4 -97 -12 -105 -16 -16 -130
-16 -146 0 -8 8 -12 46 -12 105 0 67 -3 93 -12 94 -12 0 197 57 215 58 5 1 7
13 5 29 -3 26 -6 27 -55 27 -28 0 -55 3 -59 8 -16 16 -55 7 -63 -15z"/>
</g>
</svg>
